<svg xmlns="http://www.w3.org/2000/svg" xmlns:xlink="http://www.w3.org/1999/xlink" width="250" height="200" viewBox="0 0 250 200">
  <defs>
    <clipPath id="clip-path">
      <rect id="_5f71bfc4df95d3006bc1bd3e_5ec36523544c771830037859_wfh-drawkit-thumbnail" data-name="5f71bfc4df95d3006bc1bd3e_5ec36523544c771830037859_wfh-drawkit-thumbnail" width="250" height="200" transform="translate(0 0.075)" fill="#fff"/>
    </clipPath>
  </defs>
  <g id="Mask_Group_1" data-name="Mask Group 1" transform="translate(0 -0.075)" clip-path="url(#clip-path)">
    <g id="noun_Event_Management_1696329" data-name="noun_Event Management_1696329" transform="translate(51.788 0.725)">
      <path id="Path_6" data-name="Path 6" d="M578.045,691.264,561.737,704.7l-5.9-5.97a2,2,0,0,0-2.776,0,1.793,1.793,0,0,0,0,2.653l7.113,7.3a1.613,1.613,0,0,0,1.735.5,1.527,1.527,0,0,0,1.041-.5l17.7-14.592a1.8,1.8,0,0,0,.174-2.653A2.181,2.181,0,0,0,578.045,691.264Z" transform="translate(-489.384 -607.193)"/>
      <path id="Path_7" data-name="Path 7" d="M117.66,1110.42h0c0-.166-1.041-12.437-17.522-12.437-16.655,0-17.522,12.437-17.522,12.6v3.648a1.884,1.884,0,0,0,1.908,1.824h31.054a1.884,1.884,0,0,0,1.908-1.824Z" transform="translate(-80.697 -963.669)"/>
      <path id="Path_8" data-name="Path 8" d="M156.582,945.663a9.132,9.132,0,1,0-8.674-9.12A8.9,8.9,0,0,0,156.582,945.663Z" transform="translate(-137.489 -814.333)"/>
      <path id="Path_9" data-name="Path 9" d="M1002.443,1110.42h0c0-.166-1.041-12.437-17.522-12.437-16.655,0-17.522,12.437-17.522,12.6v3.648a1.884,1.884,0,0,0,1.908,1.824h31.054a1.884,1.884,0,0,0,1.908-1.824Z" transform="translate(-850.284 -963.669)"/>
      <path id="Path_10" data-name="Path 10" d="M1041.365,945.663a9.132,9.132,0,1,0-8.674-9.12A9.016,9.016,0,0,0,1041.365,945.663Z" transform="translate(-907.076 -814.333)"/>
      <path id="Path_11" data-name="Path 11" d="M553.389,201.652h0c0-.166-1.041-12.437-17.522-12.437-16.655,0-17.522,12.437-17.522,12.6v3.648a1.884,1.884,0,0,0,1.908,1.824H551.48a1.884,1.884,0,0,0,1.908-1.824Z" transform="translate(-459.696 -167.991)"/>
      <path id="Path_12" data-name="Path 12" d="M592.311,36.9a8.9,8.9,0,0,0,8.674-9.12,8.685,8.685,0,1,0-17.349,0A9.017,9.017,0,0,0,592.311,36.9Z" transform="translate(-516.488 -18.655)"/>
      <path id="Path_13" data-name="Path 13" d="M117.685,194.54a2.259,2.259,0,0,0-2.082-1.327,1.626,1.626,0,0,0-.867.166c-64.017,26.863-43.892,88.88-43.719,89.543a2.093,2.093,0,0,0,2.776,1.327,2.691,2.691,0,0,0,1.388-.995,1.886,1.886,0,0,0,.173-1.658A79.516,79.516,0,0,1,73.1,248.929c3.47-23.712,18.216-41.123,43.545-51.57A2.145,2.145,0,0,0,117.685,194.54Z" transform="translate(-67.884 -171.491)"/>
      <path id="Path_14" data-name="Path 14" d="M878.868,193.379a2.352,2.352,0,0,0-1.735,0,2.052,2.052,0,0,0-1.214,1.161,2.707,2.707,0,0,0,0,1.658,2.052,2.052,0,0,0,1.214,1.161c60.2,25.2,41.984,81.915,41.29,84.237a2.153,2.153,0,0,0,1.388,2.653,2.3,2.3,0,0,0,2.776-1.327C922.934,282.259,943.058,220.242,878.868,193.379Z" transform="translate(-770.602 -171.491)"/>
      <path id="Path_15" data-name="Path 15" d="M481.031,1238.039c-31.4,12.768-57.251.166-57.424,0a2.291,2.291,0,0,0-1.041-.166,1.08,1.08,0,0,0-.694.166,2.691,2.691,0,0,0-1.388.995,1.886,1.886,0,0,0-.173,1.658,2.592,2.592,0,0,0,1.041,1.327c.52.332,12.491,6.135,30.36,6.135a80.064,80.064,0,0,0,30.881-6.135,2.138,2.138,0,1,0-1.561-3.98Z" transform="translate(-374.326 -1086.147)"/>
      <path id="Path_16" data-name="Path 16" d="M468.659,496.816l-10.236-40.958h-18.39v-3.814a1.7,1.7,0,0,0-1.735-1.658,1.826,1.826,0,0,0-1.735,1.658v3.814H424.247v-3.814a1.737,1.737,0,0,0-3.47,0v3.814H408.112v-3.814a1.737,1.737,0,0,0-3.47,0v3.814H386.426v64.67h72V496.816Zm-4.684-3.482H458.25V471.611Zm-9.195,23.712H389.9V459.341h14.226v1.492a1.737,1.737,0,0,0,3.47,0v-1.492h12.665v1.492a1.737,1.737,0,0,0,3.47,0v-1.492h12.318v1.492a1.7,1.7,0,0,0,1.735,1.658,1.826,1.826,0,0,0,1.735-1.658v-1.492h14.573v57.706Z" transform="translate(-344.953 -396.661)"/>
    </g>
  </g>
</svg>
